<svg xmlns="http://www.w3.org/2000/svg" viewBox="0 0 200 200" width="200" height="200" fill="none">
  <!-- Outer Navy B Loop -->
  <path
    d="M 58 162 V 62 C 58 36 78 20 106 20 C 134 20 154 38 154 62 C 154 84 136 96 108 96 C 138 96 160 112 160 140 C 160 166 138 182 106 182 H 78 C 64 182 58 172 58 162 Z"
    stroke="#0E2A47"
    stroke-width="14"
    stroke-linecap="round"
    stroke-linejoin="round"
    fill="none"
  />

  <!-- Inner Teal Loop -->
  <path
    d="M 74 62 C 74 46 88 34 106 34 C 122 34 138 46 138 62 C 138 78 122 84 96 84 H 74"
    stroke="#00A896"
    stroke-width="12"
    stroke-linecap="round"
    stroke-linejoin="round"
    fill="none"
  />

  <!-- Stacked Coins inside B counter -->
  <g transform="translate(10, 2)">
    <path
      d="M 94 146 C 94 151 103 155 114 155 C 125 155 134 151 134 146 V 150 C 134 155 125 159 114 159 C 103 159 94 155 94 150 Z"
      fill="#00A896"
    />
    <path
      d="M 94 138 C 94 143 103 147 114 147 C 125 147 134 143 134 138 V 142 C 134 147 125 151 114 151 C 103 151 94 147 94 142 Z"
      fill="#00A896"
    />
    <ellipse
      cx="114"
      cy="133"
      rx="20"
      ry="6"
      fill="#00A896"
    />
  </g>
</svg>
